<svg width="35" height="35" viewBox="0 0 35 35" fill="none" xmlns="http://www.w3.org/2000/svg">
<path d="M17.5 33.5188C16.8292 33.5188 16.1905 33.2534 15.7267 32.7869C14.4302 31.7922 0 20.5222 0 11.0707C0 5.75794 4.33121 1.43555 9.65416 1.43555C12.8099 1.43555 15.7149 2.96242 17.5 5.45033C19.2851 2.96242 22.1901 1.43555 25.3458 1.43555C30.6688 1.43555 35 5.75794 35 11.0707C35 20.5222 20.5698 31.7922 19.2733 32.7869C18.8095 33.2534 18.1708 33.5188 17.5 33.5188ZM9.65416 3.62305C5.53738 3.62305 2.1875 6.96411 2.1875 11.0707C2.1875 19.6808 16.9707 30.9844 17.1195 31.0982C17.1748 31.1388 17.2258 31.1871 17.2712 31.2381C17.3804 31.362 17.6167 31.362 17.7262 31.2381C17.7726 31.1871 17.8236 31.1404 17.8776 31.0982C18.0293 30.9844 32.8125 19.6733 32.8125 11.0707C32.8125 6.96411 29.4626 3.62305 25.3458 3.62305C22.3679 3.62305 19.6832 5.37743 18.5032 8.0899C18.1564 8.88752 16.8436 8.88752 16.4968 8.0899C15.3168 5.37743 12.6307 3.62305 9.65416 3.62305Z" fill="#9A5B6A"/>
</svg>
