<svg width="36" height="36" viewBox="0 0 36 36" fill="none" xmlns="http://www.w3.org/2000/svg">
<path d="M18.8437 0C9.01879 0 4.06506 7.04358 4.06506 12.9176C4.06506 16.4741 5.41149 19.6376 8.29895 20.8171C8.77294 21.0106 9.19755 20.8241 9.3354 20.2999C9.43049 19.9369 9.65643 19.0217 9.75705 18.6402C9.89564 18.1216 9.84146 17.9399 9.45961 17.488C8.62699 16.5058 8.09475 15.2342 8.09475 13.4329C8.09475 8.20718 12.0047 3.52916 18.2764 3.52916C23.8287 3.52916 26.8798 6.92231 26.8798 11.4536C26.8798 17.4158 24.2412 22.4477 20.3243 22.4477C18.1607 22.4477 16.5419 20.6586 17.0608 18.4644C17.6823 15.8449 18.8857 13.0175 18.8857 11.1271C18.8857 9.43456 17.9779 8.02252 16.0974 8.02252C13.8859 8.02252 12.1097 10.3103 12.1097 13.3747C12.1097 15.3267 12.7691 16.6469 12.7691 16.6469C12.7691 16.6469 10.5056 26.2356 10.1098 27.9148C9.31918 31.2586 9.9911 35.3583 10.0479 35.7722C10.0807 36.0177 10.3958 36.0759 10.5388 35.8909C10.7434 35.6244 13.3769 32.3732 14.2722 29.1241C14.5254 28.2042 15.7258 23.4406 15.7258 23.4406C16.4446 24.8106 18.5444 26.0177 20.7776 26.0177C27.4246 26.0177 31.9349 19.9579 31.9349 11.8458C31.9353 5.71226 26.7394 0 18.8437 0Z" fill="white"/>
</svg>
