<svg width="36" height="36" viewBox="0 0 36 36" fill="none" xmlns="http://www.w3.org/2000/svg">
<path d="M33.7725 9.02734C31.718 9.02734 29.8223 8.34672 28.3001 7.19852C26.5542 5.88227 25.2998 3.95148 24.8569 1.72609C24.7472 1.17625 24.6881 0.608828 24.6825 0.0273438H18.8135V16.0642L18.8065 24.8484C18.8065 27.1968 17.2772 29.188 15.1573 29.8884C14.542 30.0916 13.8776 30.1879 13.1857 30.1499C12.3026 30.1014 11.475 29.8349 10.7557 29.4046C9.225 28.4891 8.18719 26.8284 8.15907 24.9285C8.11477 21.9592 10.5152 19.5384 13.4824 19.5384C14.0681 19.5384 14.6306 19.634 15.1573 19.8077V15.4244V13.8487C14.6018 13.7664 14.0365 13.7235 13.4648 13.7235C10.2171 13.7235 7.17961 15.0735 5.00836 17.5056C3.36727 19.3436 2.38289 21.6885 2.23102 24.1473C2.03203 27.3775 3.21399 30.448 5.50617 32.7135C5.84297 33.0461 6.19664 33.3548 6.56649 33.6395C8.53172 35.152 10.9343 35.9718 13.4648 35.9718C14.0365 35.9718 14.6018 35.9296 15.1573 35.8473C17.5212 35.4972 19.7023 34.4151 21.4235 32.7135C23.5385 30.6231 24.7071 27.8479 24.7198 24.8941L24.6895 11.7766C25.6985 12.5549 26.8017 13.199 27.9858 13.6989C29.8273 14.4759 31.7798 14.8696 33.7894 14.8689V10.6073V9.02594C33.7908 9.02734 33.7739 9.02734 33.7725 9.02734Z" fill="white"/>
</svg>
